<svg xmlns="http://www.w3.org/2000/svg" width="280" height="280" viewBox="0 0 280 280">
  <g id="Group_291" data-name="Group 291" transform="translate(-46 -39)">
    <rect id="Rectangle_5947" data-name="Rectangle 5947" width="280" height="280" transform="translate(46 39)" fill="#fff"/>
    <g id="Group_98" data-name="Group 98" transform="translate(-706.335 -669.998)">
      <path id="Path_334" data-name="Path 334" d="M761.865,780.519c1.031.032,2.059.09,3.086.09q80.914.01,161.827.006h2.886c1.028,1.06.657,2.149.657,3.131q.034,36.2.019,72.409c0,6.958.048,13.912.074,20.87,1.4,2.136.773,4.458.544,6.719-.1.963-.931,1.372-1.833,1.556a15.637,15.637,0,0,1-3.08.18q-47.12,0-94.236,0a15.814,15.814,0,0,1-3.073-.187c-1.675-.386-2.744-1.71-4.007-2.706a20.854,20.854,0,0,0-27.354.77,6.3,6.3,0,0,1-2.992,1.913,49.8,49.8,0,0,1-10.089-.132c-.818-.692-1.8-.393-2.712-.4-6.571-.048-13.143-.065-19.717-.09Z" transform="translate(0 0)" fill="#d30014"/>
      <path id="Path_335" data-name="Path 335" d="M815.317,858.571c.026-.944.074-1.885.074-2.828q0-31.8,0-63.609v-2.764c.673-.783,1.5-.486,2.229-.486,12.447-.019,24.9.029,37.343-.039a11.354,11.354,0,0,1,9.506,4.7,66.893,66.893,0,0,1,9.1,16.608,142.491,142.491,0,0,1,5.241,15.81,5.636,5.636,0,0,0,2.429,3.418c6.1,4.136,12.083,8.443,18.148,12.63,3.795,2.619,5.9,5.969,5.724,10.778-.209,5.827-.077,11.667-.094,17.5a3.878,3.878,0,0,1-2.844.8c-3.115-.026-6.23.155-9.335-.113-1.546-.238-2.2-1.521-3.009-2.612-5.673-7.673-14.3-10.633-23.421-8.072-4.687,1.317-8.114,4.323-11.007,8.072-.776,1.008-1.337,2.239-2.757,2.561-4.7.448-9.416.158-14.119.2-6.507.055-13.014.026-19.521,0-1.272,0-2.583.135-3.737-.635A19.945,19.945,0,0,1,815.317,858.571Z" transform="translate(116.657 18.456)" fill="#dd4b41"/>
      <path id="Path_336" data-name="Path 336" d="M828.66,822.136c3.2-5.766,7.908-9.664,14.4-11.065a21.4,21.4,0,0,1,18.113,4c2.606,1.959,4.294,4.594,6.143,7.142,1.391.979,1.652,2.574,2.071,4.03a21.44,21.44,0,0,1-1.021,14.814,2.888,2.888,0,0,1-1.543,1.636,21.49,21.49,0,0,1-13.642,10.459c-9.158,2.371-19.488-1.714-24.033-10.292-3.579-3.308-3.772-7.744-3.54-12.057C825.764,827.754,825.922,824.41,828.66,822.136Z" transform="translate(141.427 66.635)" fill="#223948"/>
      <path id="Path_337" data-name="Path 337" d="M776.121,818.155a28.524,28.524,0,0,1,6.385-5.063,21.643,21.643,0,0,1,23.7,2.139,11.019,11.019,0,0,1,2.931,2.812,5.193,5.193,0,0,1,2.339,1.929,22.068,22.068,0,0,1,3.444,14.686,2.6,2.6,0,0,1-.622,1.382c-.879,1.946-1.189,4.084-2.226,5.991-4.126,7.6-10.617,11.657-19.1,11.783a21.167,21.167,0,0,1-20.6-14.5c-.364-1.044-.609-2.129-.912-3.2-1.9-2.683-1.076-5.618-.506-8.385C771.715,824.088,772.678,820.413,776.121,818.155Z" transform="translate(18.709 66.66)" fill="#223948"/>
      <path id="Path_338" data-name="Path 338" d="M787.509,836.152c0-1.192-.048-2.387.007-3.579a20.457,20.457,0,0,0-5.167-14.418q26.029.019,52.055.035,23.71.005,47.416-.013a5.01,5.01,0,0,0,3.1-.464v-7.235h1.559l.09,11.635c1.421,2.854.573,5.9.7,8.861.071,1.74.506,3.627-.789,5.2q-10.563-.015-21.125-.026c-1.256-.1-1.082-1.131-1.192-1.913a22.276,22.276,0,0,1-.061-2.822c-.048-5-2.467-7.589-7.46-7.9-2.223-.142-4.455.007-6.684-.048q-14.747-.01-29.48,0c-2.229.054-4.465-.09-6.69.042-4.635.28-7.338,3.16-7.518,7.8-.064,1.665.5,3.453-.744,4.951Z" transform="translate(45.499 66.547)" fill="#2a4558"/>
      <path id="Path_339" data-name="Path 339" d="M814.674,828.152l.09-14.061c2.654.035,5.305.1,7.959.106q15.032.019,30.064,0a21.8,21.8,0,0,0-2.474,9.438,20.028,20.028,0,0,0,2.957,11.29,9.765,9.765,0,0,0-3.057-.213q-16.162-.01-32.331-.01a7.973,7.973,0,0,1-2.941-.245C814.491,832.378,814.916,830.242,814.674,828.152Z" transform="translate(117.3 74.57)" fill="#516778"/>
      <path id="Path_340" data-name="Path 340" d="M804.02,814.354c2.226-.01,4.468-.19,6.674.013,3.286.3,6.079,1.5,7.448,4.9.512,1.276.193,2.532.383,3.782.235,1.556-.615,3.221.493,4.68a13.184,13.184,0,0,0-.4,1.74c-.393,3.878-2.593,6.14-6.278,7.093a37.674,37.674,0,0,1-8.369-.026,2.375,2.375,0,0,1-.625-1.64c-.052-6.558-.351-13.123.155-19.682A2.936,2.936,0,0,1,804.02,814.354Z" transform="translate(91.831 74.968)" fill="#516778"/>
      <path id="Path_341" data-name="Path 341" d="M789.542,827.809c.007-1.8.01-3.6.023-5.408a8,8,0,0,1,8.072-8.1c2.142-.032,4.291.026,6.433.042a3.345,3.345,0,0,1,.647,2.419q.034,8.6,0,17.2a3.772,3.772,0,0,1-.76,2.654,48.153,48.153,0,0,1-8.22-.1C791.178,834.992,789.539,832.689,789.542,827.809Z" transform="translate(61.476 75.003)" fill="#516778"/>
      <path id="Path_342" data-name="Path 342" d="M838.352,834.7a21.934,21.934,0,0,0,.908-19.3c-.155-.386-.277-.789-.415-1.185l12.943-.1.161,4.13a25.2,25.2,0,0,1-.01,12.5c-.576,3.205-2.065,3.727-5.105,3.875C844.012,834.76,841.18,834.683,838.352,834.7Z" transform="translate(169.893 74.633)" fill="#516778"/>
      <path id="Path_343" data-name="Path 343" d="M782.291,812.964c-1.617,2.368-3.4,4.687-4.013,7.538-.648,3-1.723,6.011-.632,9.155a3.816,3.816,0,0,1-.006,1.269h-5.167c-.921-.554-.451-1.479-1.144-2l-2.951-.145a4.311,4.311,0,0,1-.754-3.392c.261-3.083-.789-6.268.725-9.251l3.163-.18a5.033,5.033,0,0,0,.241-2.664c.647-.573,1.437-.4,2.181-.4C776.719,812.9,779.5,812.939,782.291,812.964Z" transform="translate(12.54 71.851)" fill="#2a4558"/>
      <path id="Path_344" data-name="Path 344" d="M771.253,813.881l.029,12.643c-.937.013-1.875.022-2.815.045a1.909,1.909,0,0,1-2.216-1.949c-.081-2.906-.039-5.818-.01-8.723a2.291,2.291,0,0,1,.87-1.668A23.189,23.189,0,0,1,771.253,813.881Z" transform="translate(9.637 74.104)" fill="#dd4d42"/>
      <path id="Path_345" data-name="Path 345" d="M791.464,836.487h8.211l.126-22.172,30.305-.019a.831.831,0,0,1,0,.493c-1.073.957-2.406.789-3.672.792-7.119.026-14.234.006-21.35.016a7.518,7.518,0,0,0-3.952.667c-.113,6.127-.106,12.415.026,18.49,1.317,1.083,2.561.844,3.733.851,7.116.023,14.231,0,21.35.019,1.356,0,2.77-.174,3.937.8l8.249.081c-.593.738-1.427.448-2.158.448q-21.323.029-42.649,0C792.888,836.951,792.05,837.244,791.464,836.487Z" transform="translate(65.746 75.026)" fill="#b7bdc5"/>
      <path id="Path_346" data-name="Path 346" d="M842.669,827.9c-.187-4.168-.2-8.333.01-12.5,3.208.164,3.933.889,3.956,3.965.01,1.456.006,2.909,0,4.362C846.621,827.117,846.087,827.677,842.669,827.9Z" transform="translate(179.164 77.48)" fill="#d30014"/>
      <path id="Path_347" data-name="Path 347" d="M857.785,825.3H820.493V792.142C841.721,789.359,858.613,807.285,857.785,825.3Z" transform="translate(130.225 25.179)" fill="#0093d5"/>
      <path id="Path_348" data-name="Path 348" d="M828.646,804.546c.593.664.619,1.53.976,2.239a7.786,7.786,0,0,1-8.662.258,4.479,4.479,0,0,1,.593-2.76,11.484,11.484,0,0,0,3.588.825C826.356,805.1,827.409,804.318,828.646,804.546Z" transform="translate(131.256 52.782)" fill="#263a48"/>
      <path id="Path_349" data-name="Path 349" d="M843.492,814.106a9.081,9.081,0,0,1,3.634,2.174c-.744,3.073.825,4.764,3.469,5.814-.019,1.537.519,3.118-.39,4.58-3.063.747-3.4,3-3.112,5.608a9.232,9.232,0,0,1-3.6,2.174,1.265,1.265,0,0,1-1.153-.367c-1.556-1.475-3.1-1.44-4.713-.084a1.475,1.475,0,0,1-1.391.4c-1.317-.7-2.86-1.1-3.553-2.635.9-2.892-.786-4.232-3.121-5.179a6.273,6.273,0,0,1-.026-4.639c3.469-1.855,3.469-1.855,3.121-5.144.667-1.594,2.21-2,3.576-2.641a1.223,1.223,0,0,1,1.179.271c1.756,1.508,3.443,1.553,5.138-.1A1.038,1.038,0,0,1,843.492,814.106Z" transform="translate(149.34 74.54)" fill="#e6ecf0"/>
      <path id="Path_350" data-name="Path 350" d="M838.671,820.575c-.876-.258-1.83.013-2.68-.554-1.73-1.153-1.978-2.59-.789-5.26A10.238,10.238,0,0,1,838.671,820.575Z" transform="translate(161.264 76.059)" fill="#516778"/>
      <path id="Path_351" data-name="Path 351" d="M838.574,814.422c-.3.3-.609.576-.886.889-1.669,1.885-3.457,1.942-5.219.126-.357-.367-.612-.825-1.156-.957A13.031,13.031,0,0,1,838.574,814.422Z" transform="translate(154.258 74.224)" fill="#526979"/>
      <path id="Path_352" data-name="Path 352" d="M832.355,814.924a2.556,2.556,0,0,1,.654,3.327c-.776,1.624-2.187,1.9-3.775,1.817C829.746,818.032,830.284,816.013,832.355,814.924Z" transform="translate(149.641 76.421)" fill="#536979"/>
      <path id="Path_353" data-name="Path 353" d="M835.27,823.6c-.335-.947-.97-1.83-.828-2.893.248-1.836,1.5-2.677,3.94-2.716A9.342,9.342,0,0,1,835.27,823.6Z" transform="translate(161.164 83.226)" fill="#526879"/>
      <path id="Path_354" data-name="Path 354" d="M831.314,821.963a2.316,2.316,0,0,0,1-.757c1.981-2.084,3.679-2.032,5.524.129a7.834,7.834,0,0,0,.738.683A12.936,12.936,0,0,1,831.314,821.963Z" transform="translate(154.261 86.979)" fill="#526879"/>
      <path id="Path_355" data-name="Path 355" d="M829.242,817.961a8.108,8.108,0,0,1,1.781.154c2.278.712,2.8,2.764,1.34,5.025C830.443,821.946,829.7,820.039,829.242,817.961Z" transform="translate(149.658 83.166)" fill="#526879"/>
      <path id="Path_356" data-name="Path 356" d="M780.993,834.449c-1.295-.712-2.841-1.089-3.527-2.619,1.024-2.986-.921-4.175-3.141-5.2a6.634,6.634,0,0,1-.019-4.6c2.361-.925,4.013-2.281,3.141-5.17.635-1.614,2.223-1.942,3.543-2.632a1.244,1.244,0,0,1,1.185.267c1.659,1.365,3.276,1.623,4.964.022a1.2,1.2,0,0,1,1.607-.251,10.613,10.613,0,0,1,3.16,2.065c-.287,2.79.667,4.845,3.456,5.8a19.642,19.642,0,0,1-.016,4.394c-2.828.944-3.54,3.147-3.466,5.821a9.224,9.224,0,0,1-3.634,2.168,1.28,1.28,0,0,1-1.153-.371c-1.553-1.475-3.1-1.443-4.713-.087A1.435,1.435,0,0,1,780.993,834.449Z" transform="translate(26.739 74.483)" fill="#e6ecf0"/>
      <path id="Path_357" data-name="Path 357" d="M783.859,814.543a1.754,1.754,0,0,0-1.282.635c-1.949,2.155-3.469,2.152-5.469.052a2.283,2.283,0,0,0-1-.725A12.9,12.9,0,0,1,783.859,814.543Z" transform="translate(31.626 74.206)" fill="#526879"/>
      <path id="Path_358" data-name="Path 358" d="M783.454,820.564c-.254-.035-.509-.074-.763-.1-2.79-.316-3.91-1.875-3.234-4.548a6.355,6.355,0,0,1,.541-1.153A10.446,10.446,0,0,1,783.454,820.564Z" transform="translate(38.648 76.054)" fill="#516878"/>
      <path id="Path_359" data-name="Path 359" d="M777.169,814.923a2.583,2.583,0,0,1,.641,3.341c-.773,1.63-2.213,1.855-3.782,1.83C774.515,818.028,775.065,816.005,777.169,814.923Z" transform="translate(27.016 76.418)" fill="#526879"/>
      <path id="Path_360" data-name="Path 360" d="M776.1,821.951c.544-.122.805-.57,1.163-.937,1.833-1.885,3.608-1.765,5.37.306a9.862,9.862,0,0,0,.722.7A12.838,12.838,0,0,1,776.1,821.951Z" transform="translate(31.628 86.982)" fill="#526879"/>
      <path id="Path_361" data-name="Path 361" d="M774.034,817.963c1.826-.08,3.376.4,3.959,2.329.316,1.05.351,2.171-.818,2.87C775.2,821.989,774.64,819.96,774.034,817.963Z" transform="translate(27.03 83.152)" fill="#526879"/>
      <path id="Path_362" data-name="Path 362" d="M779.959,823.746a13.432,13.432,0,0,1-.525-1.424c-.6-2.393.477-3.923,2.979-4.271.335-.048.673-.084,1.011-.126A11.418,11.418,0,0,1,779.959,823.746Z" transform="translate(38.661 83.087)" fill="#506778"/>
      <path id="Path_363" data-name="Path 363" d="M816.1,814.761l22.732.01c.461.989.171,1.994.165,3.63-7.65.358-15.2.225-22.671.074A5.443,5.443,0,0,1,816.1,814.761Z" transform="translate(119.964 76.059)" fill="#d30014"/>
      <path id="Path_364" data-name="Path 364" d="M838.859,817.814l0,3.128a3.446,3.446,0,0,1-2.416.7c-6.007.019-12.012.035-18.019-.013a2.97,2.97,0,0,1-2.265-.7,5.149,5.149,0,0,1-.087-3.147,3.523,3.523,0,0,1,2.667-.664q8.736-.038,17.469,0A3.42,3.42,0,0,1,838.859,817.814Z" transform="translate(119.948 81.252)" fill="#d30014"/>
      <path id="Path_365" data-name="Path 365" d="M838.835,818.945l-.01,3.125c-4.181.528-8.378.148-12.569.219-3.341.058-6.681.074-9.992-.032-.654-1.169-.28-2.239-.306-3.105a2.444,2.444,0,0,1,2.126-.689q9.267-.034,18.538-.006A3.289,3.289,0,0,1,838.835,818.945Z" transform="translate(119.968 84.244)" fill="#d30014"/>
      <path id="Path_366" data-name="Path 366" d="M839.03,821.515H816.713c-.615,1-.409,1.9-.219,3.125H839.02a.858.858,0,0,1-.815.5c-7.338,0-14.676,0-22.268,0a74.8,74.8,0,0,1-.1-7.721.328.328,0,0,1,.522.01,7.586,7.586,0,0,0,.222,3.1H839.03Z" transform="translate(119.773 81.674)" fill="#dd4b41"/>
      <path id="Path_367" data-name="Path 367" d="M816.289,814.761v2.964H838.8a8.694,8.694,0,0,0,.216-2.954c1.028,1.34.525,2.7.064,4.068-.106.113-.212.226-.316.342a6.853,6.853,0,0,1-3.508.486c-4.951.023-9.905.013-14.859.007-1.385,0-2.748.032-3.753,1.2a.7.7,0,0,1-.85.084q0-2.435,0-4.874C815.8,815.589,815.693,815.042,816.289,814.761Z" transform="translate(119.776 76.059)" fill="#dd4b41"/>
      <path id="Path_368" data-name="Path 368" d="M815.792,818.15h.386c6.488.522,12.988.1,19.479.28,1.823.048,2.545-1.076,3.321-2.316l.1-.087a4.251,4.251,0,0,1-.054,4.168l-22.671.032-.522-.01Z" transform="translate(119.783 78.871)" fill="#dd4b41"/>
      <path id="Path_369" data-name="Path 369" d="M823.979,836.083H794.253V814.449h29.655Z" transform="translate(71.941 75.365)" fill="#cccdd3"/>
      <path id="Path_370" data-name="Path 370" d="M838.712,816.054a8.2,8.2,0,0,1-.113,2.728,1.136,1.136,0,0,1-.976.345q-9.881,0-19.762,0c-.822,0-1.8.245-1.949-1.04l.264-2.036Z" transform="translate(120.049 78.931)" fill="#d30014"/>
      <path id="Path_371" data-name="Path 371" d="M829.578,836.275a19.5,19.5,0,0,0-11.841-3.447,7.259,7.259,0,0,0-5.779,3.128c-1.8-3.128-5.351-5.057-10.846-5.012-8.871.106-17.675,4.2-24.652,4.2-6.694,0-11.571-4.2-11.41-11.667.28-13.091,11.339-24.887,19.607-30.2,4.748-3.051,8.729-3.959,11.335-3.669,1.9.216,4.178,2.406,2.741,5.637-2.113,4.738-5.035,4.336-4.932,2.074a3.736,3.736,0,0,1,1.778-2.9A3.644,3.644,0,0,1,797.3,794c.419-.351.741-2.944-2.667-2.087s-7.5,4.2-11.406,8.5-9.989,12.489-11.49,21.06c-.7,3.978-.229,11.223,9.187,11.132,7.989-.064,19.769-5.321,30.592-5.231a20.7,20.7,0,0,1,10.714,2.928c2.806,1.736,6.166,4.252,7.351,5.969m2.564-23.734h1.633s-8.195,11.854-12.84,11.323c-2.58-.3-1.813-3.5-1.813-3.5s-3.646,4.262-6.967,3.408c-3.031-.773-1.079-5.811-1.079-5.811-.342.142-6.9,7.531-11.5,5.76-4.809-1.852-2.323-8.04-1.4-9.9.77-1.569,1.63-3.092,1.63-3.092s-.741.212-1.2.315-1.156.239-1.156.239-2.277,3.7-3.672,5.556-7.306,8.2-10.791,6.935-2.629-6.143-.664-10.021c3.173-6.288,10.707-14.009,15.246-12.853,4.583,1.166.8,8.607.8,8.607s.908.125,3.089-1.372c3.154-2.145,7.306-7.927,11.809-7.248,2.1.312,4.078,2.483,1.385,6.6-.86,1.324-2.3,2.506-3.415,1.337-.689-.718-.094-2.045.635-2.954a2.842,2.842,0,0,1,2.426-1.111s.744-1.708-1.14-1.672c-1.533.029-5.4,3.595-7.592,7.2-2,3.308-5.041,8.948-1.988,10.176,2.8,1.131,8.114-5.2,10.582-8.5s8.079-10.82,12.782-11.126a3.139,3.139,0,0,1,2.59,1.372l.544-.867h4.7s-8.865,14.821-9.56,15.942c-.544.876-1.266,2.851.741,1.743S832.142,812.541,832.142,812.541Zm-36.519-1.5a10.385,10.385,0,0,1-2.419-1.111,5.232,5.232,0,0,1-1.736-1.917c-.042-.074-.087-.016-.135.048s-.293.386-1.971,2.847-4.162,7.515-1.833,8.375c1.488.554,4-2.071,5.354-3.8a43.773,43.773,0,0,0,2.822-4.232C795.765,811.1,795.7,811.069,795.623,811.04Zm1.865-7.879c-1.237-.931-4.381,1.25-4.39,3.482-.023,2.287,2.835,2.941,3.2,2.957a.4.4,0,0,0,.454-.184,19.649,19.649,0,0,0,.9-2.016C798.084,806.256,798.638,804.034,797.488,803.161Zm23.985,12.334c1.9-2.606,7.138-11.732,7.138-11.732a.774.774,0,0,0-.7-.673c-.725-.035-1.926.209-4.336,3.221a56.262,56.262,0,0,0-5.628,7.9c-1.491,2.722-2.145,4.632-1.285,5.164a1.289,1.289,0,0,0,.9.087,5.409,5.409,0,0,0,2.287-1.855C820.32,817.067,820.846,816.351,821.474,815.495Zm21.144-14.138h-4.465l-2.522,4.088H840.1Zm65.977-7.344c-3.3,2.129-7.882,4.052-12.279,3.63-1.111,1.153-2.3,2.484-3.5,3.936,7.637,1.508,14.305-3.221,17.862-7.248a23.709,23.709,0,0,0,3.308-4.758A29.705,29.705,0,0,1,908.594,794.012ZM895.52,828.676c-.638,1.012-1.35,2.951.741,1.746,2.538-1.478,6.162-6.974,6.162-6.974h1.636a54.358,54.358,0,0,1-4.97,6.536c-2.583,2.854-5.724,5.457-7.94,5.2-2.59-.3-1.781-3.7-1.781-3.7s-3.714,3.946-6.268,3.663c-3.456-.377-2.406-4.658-2.406-4.658s-3.914,4.813-6.574,4.658c-4.178-.239-3.134-5.344-1.971-8.91.625-1.917,1.2-3.421,1.2-3.421s-.419.109-1.3.238c-.467.068-1.318.116-1.318.116a56.524,56.524,0,0,1-3.128,4.919c-1.395,1.852-7.306,8.214-10.791,6.945-3.221-1.179-2.161-6.11-.283-10.027,2.732-5.711,10.421-13.925,14.863-12.853,4.594,1.121.1,9.512.1,9.512s0,.035.052.051a1.892,1.892,0,0,0,.883-.045,9.841,9.841,0,0,0,1.688-.5s4.619-9.683,9.725-16.029,15.294-17.253,19.3-14.612c.976.644.531,2.883-.786,5.6a17.287,17.287,0,0,1-1.8.47,14.6,14.6,0,0,0,1.64-3.888c.6-3.27-7.042,3.63-12.5,11.058a102.815,102.815,0,0,0-8.733,14.157,23.469,23.469,0,0,0,2.822-2.01,80.972,80.972,0,0,0,6.932-6.478,75.254,75.254,0,0,0,5.9-6.816,16.744,16.744,0,0,0,1.733-.177,74.6,74.6,0,0,1-6.507,7.7c-2.168,2.2-4.532,4.571-6.587,6.3a56.006,56.006,0,0,1-5.772,4.3s-4.79,9.619-2.194,10.247c1.537.361,4.545-4.284,4.545-4.284a107.249,107.249,0,0,1,6.31-8.713c3.234-3.688,6.021-5.811,8.8-5.856a3.305,3.305,0,0,1,2.577,1.7l.763-1.182h4.713S896.222,827.552,895.52,828.676Zm-26.427-5.863a9.739,9.739,0,0,1-2.161-1.375,7.052,7.052,0,0,1-1.63-1.968c-.038-.077-.09-.019-.135.048a29.618,29.618,0,0,0-1.92,2.7c-1.672,2.461-4.246,7.547-1.91,8.407,1.488.554,3.975-2.058,5.331-3.792a32.8,32.8,0,0,0,2.5-3.8C869.234,822.881,869.17,822.839,869.093,822.813Zm2.367-4.158c.438-1.137.989-3.36-.167-4.233-1.23-.931-4.371,1.25-4.391,3.476a3.865,3.865,0,0,0,2.754,3.466c.306.084.409.074.561-.174A19.306,19.306,0,0,0,871.46,818.655Zm27-3.147a1.36,1.36,0,0,0,.135-.316.764.764,0,0,0-.7-.667c-.728-.035-1.717.1-4.31,2.98a38.815,38.815,0,0,0-5.524,7.844c-1.488,2.722-2.081,4.745-1.23,5.263a1.286,1.286,0,0,0,.9.09c.577-.139,1.234-.68,2.236-1.833.467-.538.989-1.3,1.6-2.158C893.284,824.369,897.6,817,898.457,815.508Zm10.137-21.5c-3.3,2.129-7.882,4.052-12.279,3.63-1.111,1.153-2.3,2.484-3.5,3.936,7.637,1.508,14.305-3.221,17.862-7.248a23.709,23.709,0,0,0,3.308-4.758A29.705,29.705,0,0,1,908.594,794.012Zm-21.437,5.541c-3.608-1.852-6.237-4.11-8.987-5.524-2.625-1.343-4.31-1.9-6.429-1.614a5.82,5.82,0,0,0-.873.213s1.1,3.72-3.24,9.979c-4.394,6.339-8.375,6.31-9.509,4.552-1.185-1.836.342-5.586,2.9-8.919a32.293,32.293,0,0,1,7.383-6.388s-1.5-.912-5.192,1.179c-3.589,2.032-9.786,6.874-15.52,15.05s-6.871,12.669-7.7,16.2-.071,7.328,3.853,7.328,8.494-5.988,9.783-8.069c2.38-3.881,3.946-9.822.692-9-1.607.4-2.909,2.181-3.73,3.895a16.452,16.452,0,0,0-1.179,3.434,13.691,13.691,0,0,0-3.179,1.852,23.209,23.209,0,0,0-3.009,2.67s.013-2.825,2.265-7.409,6.394-6.671,8.733-6.865c2.116-.174,4.861,1.617,2.535,8.237s-9.19,14.653-16.412,14.763c-6.655.1-11.023-8.407-1.759-23.25,10.24-16.406,22.291-21.444,26.2-22s5.173,1.156,5.173,1.156a16.806,16.806,0,0,1,7.431-1.23c4.774.322,8.469,3.7,13.333,6.065C889.457,797.089,888.249,798.358,887.157,799.553Zm-17.771-6.439a18.652,18.652,0,0,0-6.043,4.693c-3.257,3.595-5.138,7.605-3.733,8.675.535.409,1.769.477,4.03-1.55a17.992,17.992,0,0,0,4.758-6.6C869.84,794.782,869.386,793.162,869.386,793.114Z" transform="translate(7.067 20.085)" fill="#fff"/>
    </g>
  </g>
</svg>
